<svg xmlns="http://www.w3.org/2000/svg" xmlns:xlink="http://www.w3.org/1999/xlink" version="1.1" data-diagram-type="DESCRIPTION" style="width:957px;height:747px;background:#FFFFFF;" width="957px" height="747px" viewBox="0 0 957 747" zoomAndPan="magnify" preserveAspectRatio="none" contentStyleType="text/css">
<style>@media (prefers-color-scheme: light) {
/* Bare elements: PlantUML CSS mode may omit stroke on some shapes */
ellipse:not([style*="stroke"]):not([stroke]),
circle:not([style*="stroke"]):not([stroke]) {
 stroke: #000000 !important;
 stroke-width: 0.75 !important;
}
rect[fill="#FFFFFF"]:not([style*="stroke"]):not([stroke]),
rect[fill="#ffffff"]:not([style*="stroke"]):not([stroke]) {
 stroke: #000000 !important;
 stroke-width: 0.75 !important;
}
path[fill="none"]:not([style*="stroke"]):not([stroke]) {
 stroke: #000000 !important;
 stroke-width: 0.75 !important;
}
/* Swimlane headers rendered with white stroke (invisible on white canvas) */
[style*="stroke:#FFFFFF"], [style*="stroke: #FFFFFF"],
[style*="stroke:#ffffff"], [style*="stroke: #ffffff"] {
 stroke: #000000 !important;
}
}</style><?plantuml 1.2026.8?><defs/><g font-family="sans-serif" lengthAdjust="spacing"><g class="title" data-source-line="9"><text x="248.874" y="22.995" fill="#000" font-size="14" textLength="452.252" font-weight="700">TsimokaAI - Composants et relations (niveau conception)</text></g><!--cluster Acces--><g class="cluster" data-qualified-name="Acces" id="ent0001" data-source-line="14"><rect x="7" y="44.297" width="200" height="207.19" fill="none" style="stroke:#181818;stroke-width:1;" rx="2.5" ry="2.5"/><text x="84.37" y="59.292" fill="#000" font-size="14" textLength="45.261" font-weight="700">Acces</text></g><!--cluster Coeur pedagogique--><g class="cluster" data-qualified-name="Coeur pedagogique" id="ent0004" data-source-line="19"><rect x="231" y="147.887" width="384" height="308.79" fill="none" style="stroke:#181818;stroke-width:1;" rx="2.5" ry="2.5"/><text x="345.969" y="162.882" fill="#000" font-size="14" textLength="154.062" font-weight="700">Coeur pedagogique</text></g><!--cluster Pilotage--><g class="cluster" data-qualified-name="Pilotage" id="ent0009" data-source-line="26"><rect x="471" y="480.677" width="472" height="103.59" fill="none" style="stroke:#181818;stroke-width:1;" rx="2.5" ry="2.5"/><text x="674.434" y="495.672" fill="#000" font-size="14" textLength="65.133" font-weight="700">Pilotage</text></g><!--entity Portail--><g class="entity" data-qualified-name="Acces.Portail" id="ent0002" data-source-line="15"><rect x="70.72" y="79.297" width="120.561" height="52.594" fill="#F1F1F1" style="stroke:#181818;stroke-width:0.5;" rx="2.5" ry="2.5"/><text x="81.72" y="102.292" fill="#000" font-size="14" textLength="98.561" font-style="italic">«Component»</text><text x="91.994" y="118.589" fill="#000" font-size="14" textLength="78.012">Portail web</text></g><!--entity Identites--><g class="entity" data-qualified-name="Acces.Identites" id="ent0003" data-source-line="16"><rect x="22.85" y="182.887" width="168.306" height="52.594" fill="#F1F1F1" style="stroke:#181818;stroke-width:0.5;" rx="2.5" ry="2.5"/><text x="57.723" y="205.882" fill="#000" font-size="14" textLength="98.561" font-style="italic">«Component»</text><text x="32.85" y="222.179" fill="#000" font-size="14" textLength="148.306">Gestion des identites</text></g><!--entity Espaces--><g class="entity" data-qualified-name="Coeur pedagogique.Espaces" id="ent0005" data-source-line="20"><rect x="434.88" y="388.077" width="164.245" height="52.594" fill="#F1F1F1" style="stroke:#181818;stroke-width:0.5;" rx="2.5" ry="2.5"/><text x="467.722" y="411.072" fill="#000" font-size="14" textLength="98.561" font-style="italic">«Component»</text><text x="444.88" y="427.369" fill="#000" font-size="14" textLength="144.245">Gestion des espaces</text></g><!--entity Ingestion--><g class="entity" data-qualified-name="Coeur pedagogique.Ingestion" id="ent0006" data-source-line="21"><rect x="260.71" y="285.487" width="182.586" height="52.594" fill="#F1F1F1" style="stroke:#181818;stroke-width:0.5;" rx="2.5" ry="2.5"/><text x="302.723" y="308.482" fill="#000" font-size="14" textLength="98.561" font-style="italic">«Component»</text><text x="270.71" y="324.779" fill="#000" font-size="14" textLength="162.586">Ingestion des contenus</text></g><!--entity Assistant--><g class="entity" data-qualified-name="Coeur pedagogique.Assistant" id="ent0007" data-source-line="22"><rect x="376.96" y="182.887" width="200.086" height="52.594" fill="#F1F1F1" style="stroke:#181818;stroke-width:0.5;" rx="2.5" ry="2.5"/><text x="427.723" y="205.882" fill="#000" font-size="14" textLength="98.561" font-style="italic">«Component»</text><text x="386.96" y="222.179" fill="#000" font-size="14" textLength="180.086">Assistant conversationnel</text></g><!--entity Revision--><g class="entity" data-qualified-name="Coeur pedagogique.Revision" id="ent0008" data-source-line="23"><rect x="247.3" y="388.077" width="147.395" height="52.594" fill="#F1F1F1" style="stroke:#181818;stroke-width:0.5;" rx="2.5" ry="2.5"/><text x="271.717" y="411.072" fill="#000" font-size="14" textLength="98.561" font-style="italic">«Component»</text><text x="257.3" y="427.369" fill="#000" font-size="14" textLength="127.395">Atelier de revision</text></g><!--entity Suivi--><g class="entity" data-qualified-name="Pilotage.Suivi" id="ent0010" data-source-line="27"><rect x="486.77" y="515.677" width="194.453" height="52.594" fill="#F1F1F1" style="stroke:#181818;stroke-width:0.5;" rx="2.5" ry="2.5"/><text x="534.716" y="538.672" fill="#000" font-size="14" textLength="98.561" font-style="italic">«Component»</text><text x="496.77" y="554.969" fill="#000" font-size="14" textLength="174.453">Suivi des apprentissages</text></g><!--entity Motivation--><g class="entity" data-qualified-name="Pilotage.Motivation" id="ent0011" data-source-line="28"><rect x="721.11" y="515.677" width="205.773" height="52.594" fill="#F1F1F1" style="stroke:#181818;stroke-width:0.5;" rx="2.5" ry="2.5"/><text x="774.716" y="538.672" fill="#000" font-size="14" textLength="98.561" font-style="italic">«Component»</text><text x="731.11" y="554.969" fill="#000" font-size="14" textLength="185.773">Motivation et engagement</text></g><!--link Portail to Identites--><g class="link" data-entity-1="ent0002" data-entity-2="ent0003" id="lnk12" data-source-line="32" data-link-type="dependency"><path d="M130.94,132.277 C130.94,147.737 130.94,162.147 130.94,177.597" style="stroke:#181818;stroke-width:1;" fill="none" id="Portail-to-Identites"/><polygon points="130.94,182.597,134.94,173.597,130.94,177.597,126.94,173.597,130.94,182.597" fill="#181818" style="stroke:#181818;stroke-width:1;stroke-linejoin:miter;stroke-miterlimit:10;"/></g><!--link Portail to Espaces--><g class="link" data-entity-1="ent0002" data-entity-2="ent0005" id="lnk13" data-source-line="33" data-link-type="dependency"><path d="M191.7,102.267 C316.03,102.267 588.08,102.267 588.08,102.267 C588.08,102.267 588.08,307.287 588.08,382.767" style="stroke:#181818;stroke-width:1;" fill="none" id="Portail-to-Espaces"/><polygon points="588.08,387.767,592.08,378.767,588.08,382.767,584.08,378.767,588.08,387.767" fill="#181818" style="stroke:#181818;stroke-width:1;stroke-linejoin:miter;stroke-miterlimit:10;"/></g><!--link Portail to Ingestion--><g class="link" data-entity-1="ent0002" data-entity-2="ent0006" id="lnk14" data-source-line="34" data-link-type="dependency"><path d="M191.72,117.267 C246.6,117.267 318.83,117.267 318.83,117.267 C318.83,117.267 318.83,226.867 318.83,280.147" style="stroke:#181818;stroke-width:1;" fill="none" id="Portail-to-Ingestion"/><polygon points="318.83,285.147,322.83,276.147,318.83,280.147,314.83,276.147,318.83,285.147" fill="#181818" style="stroke:#181818;stroke-width:1;stroke-linejoin:miter;stroke-miterlimit:10;"/></g><!--link Portail to Assistant--><g class="link" data-entity-1="ent0002" data-entity-2="ent0007" id="lnk15" data-source-line="35" data-link-type="dependency"><path d="M191.66,109.267 C290.9,109.267 477,109.267 477,109.267 C477,109.267 477,147.817 477,177.407" style="stroke:#181818;stroke-width:1;" fill="none" id="Portail-to-Assistant"/><polygon points="477,182.407,481,173.407,477,177.407,473,173.407,477,182.407" fill="#181818" style="stroke:#181818;stroke-width:1;stroke-linejoin:miter;stroke-miterlimit:10;"/></g><!--link Portail to Revision--><g class="link" data-entity-1="ent0002" data-entity-2="ent0008" id="lnk16" data-source-line="36" data-link-type="dependency"><path d="M191.42,124.267 C222.53,124.267 254,124.267 254,124.267 C254,124.267 254,310.787 254,382.607" style="stroke:#181818;stroke-width:1;" fill="none" id="Portail-to-Revision"/><polygon points="254,387.607,258,378.607,254,382.607,250,378.607,254,387.607" fill="#181818" style="stroke:#181818;stroke-width:1;stroke-linejoin:miter;stroke-miterlimit:10;"/></g><!--link Portail to Suivi--><g class="link" data-entity-1="ent0002" data-entity-2="ent0010" id="lnk17" data-source-line="37" data-link-type="dependency"><path d="M191.75,94.267 C329.52,94.267 653.86,94.267 653.86,94.267 C653.86,94.267 653.86,413.927 653.86,510.307" style="stroke:#181818;stroke-width:1;" fill="none" id="Portail-to-Suivi"/><polygon points="653.86,515.307,657.86,506.307,653.86,510.307,649.86,506.307,653.86,515.307" fill="#181818" style="stroke:#181818;stroke-width:1;stroke-linejoin:miter;stroke-miterlimit:10;"/></g><!--link Portail to Motivation--><g class="link" data-entity-1="ent0002" data-entity-2="ent0011" id="lnk18" data-source-line="38" data-link-type="dependency"><path d="M191.76,87.267 C366.56,87.267 858.3,87.267 858.3,87.267 C858.3,87.267 858.3,412.757 858.3,510.227" style="stroke:#181818;stroke-width:1;" fill="none" id="Portail-to-Motivation"/><polygon points="858.3,515.227,862.3,506.227,858.3,510.227,854.3,506.227,858.3,515.227" fill="#181818" style="stroke:#181818;stroke-width:1;stroke-linejoin:miter;stroke-miterlimit:10;"/></g><!--link Assistant to Espaces--><g class="link" data-entity-1="ent0007" data-entity-2="ent0005" id="lnk19" data-source-line="40" data-link-type="dependency"><path d="M510.17,235.597 C510.17,274.887 510.17,343.327 510.17,382.747" style="stroke:#181818;stroke-width:1;" fill="none" id="Assistant-to-Espaces"/><polygon points="510.17,387.747,514.17,378.747,510.17,382.747,506.17,378.747,510.17,387.747" fill="#181818" style="stroke:#181818;stroke-width:1;stroke-linejoin:miter;stroke-miterlimit:10;"/></g><!--link Assistant to Ingestion--><g class="link" data-entity-1="ent0007" data-entity-2="ent0006" id="lnk20" data-source-line="41" data-link-type="dependency"><path d="M410.13,235.877 C410.13,251.077 410.13,265.047 410.13,280.227" style="stroke:#181818;stroke-width:1;" fill="none" id="Assistant-to-Ingestion"/><polygon points="410.13,285.227,414.13,276.227,410.13,280.227,406.13,276.227,410.13,285.227" fill="#181818" style="stroke:#181818;stroke-width:1;stroke-linejoin:miter;stroke-miterlimit:10;"/></g><!--link Identites to Espaces--><g class="link" data-entity-1="ent0003" data-entity-2="ent0005" id="lnk21" data-source-line="44" data-link-type="dependency"><path d="M107,235.677 C107,279.727 107,363.267 107,363.267 C107,363.267 437.68,363.267 437.68,363.267 C437.68,363.267 437.68,370.257 437.68,382.627" style="stroke:#181818;stroke-width:1;stroke-dasharray:7,7;" fill="none" id="Identites-to-Espaces"/><polygon points="437.68,387.627,441.68,378.627,437.68,382.627,433.68,378.627,437.68,387.627" fill="#181818" style="stroke:#181818;stroke-width:1;stroke-linejoin:miter;stroke-miterlimit:10;"/></g><!--link Ingestion to Espaces--><g class="link" data-entity-1="ent0006" data-entity-2="ent0005" id="lnk22" data-source-line="45" data-link-type="dependency"><path d="M440.49,338.467 C440.49,353.667 440.49,367.647 440.49,382.827" style="stroke:#181818;stroke-width:1;stroke-dasharray:7,7;" fill="none" id="Ingestion-to-Espaces"/><polygon points="440.49,387.827,444.49,378.827,440.49,382.827,436.49,378.827,440.49,387.827" fill="#181818" style="stroke:#181818;stroke-width:1;stroke-linejoin:miter;stroke-miterlimit:10;"/></g><!--link Ingestion to Revision--><g class="link" data-entity-1="ent0006" data-entity-2="ent0008" id="lnk23" data-source-line="46" data-link-type="dependency"><path d="M327.7,338.467 C327.7,353.667 327.7,367.647 327.7,382.827" style="stroke:#181818;stroke-width:1;stroke-dasharray:7,7;" fill="none" id="Ingestion-to-Revision"/><polygon points="327.7,387.827,331.7,378.827,327.7,382.827,323.7,378.827,327.7,387.827" fill="#181818" style="stroke:#181818;stroke-width:1;stroke-linejoin:miter;stroke-miterlimit:10;"/></g><!--link Assistant to Suivi--><g class="link" data-entity-1="ent0007" data-entity-2="ent0010" id="lnk24" data-source-line="47" data-link-type="dependency"><path d="M577.54,209.267 C604.58,209.267 626.49,209.267 626.49,209.267 C626.49,209.267 626.49,431.357 626.49,510.307" style="stroke:#181818;stroke-width:1;stroke-dasharray:7,7;" fill="none" id="Assistant-to-Suivi"/><polygon points="626.49,515.307,630.49,506.307,626.49,510.307,622.49,506.307,626.49,515.307" fill="#181818" style="stroke:#181818;stroke-width:1;stroke-linejoin:miter;stroke-miterlimit:10;"/></g><!--link Revision to Suivi--><g class="link" data-entity-1="ent0008" data-entity-2="ent0010" id="lnk25" data-source-line="48" data-link-type="dependency"><path d="M345.57,440.877 C345.57,478.337 345.57,542.267 345.57,542.267 C345.57,542.267 415.48,542.267 481.33,542.267" style="stroke:#181818;stroke-width:1;stroke-dasharray:7,7;" fill="none" id="Revision-to-Suivi"/><polygon points="486.33,542.267,477.33,538.267,481.33,542.267,477.33,546.267,486.33,542.267" fill="#181818" style="stroke:#181818;stroke-width:1;stroke-linejoin:miter;stroke-miterlimit:10;"/></g><!--link Revision to Motivation--><g class="link" data-entity-1="ent0008" data-entity-2="ent0011" id="lnk26" data-source-line="49" data-link-type="dependency"><path d="M296.43,441.097 C296.43,458.607 296.43,478.267 296.43,478.267 C296.43,478.267 789.7,478.267 789.7,478.267 C789.7,478.267 789.7,492.867 789.7,510.327" style="stroke:#181818;stroke-width:1;stroke-dasharray:7,7;" fill="none" id="Revision-to-Motivation"/><polygon points="789.7,515.327,793.7,506.327,789.7,510.327,785.7,506.327,789.7,515.327" fill="#181818" style="stroke:#181818;stroke-width:1;stroke-linejoin:miter;stroke-miterlimit:10;"/></g><g class="legend" data-source-line="51"><rect x="221.459" y="604.267" width="507.082" height="124.078" fill="#DDD" style="stroke:#000;stroke-width:1;" rx="7.5" ry="7.5"/><text x="226.459" y="622.262" fill="#000" font-size="14" textLength="395.787">Fleche pleine : sollicite / pointilles : notifie (asynchrone).</text><text x="226.459" y="638.559" fill="#000" font-size="14" textLength="450.857">Assistant -> Espaces : persona / Assistant -> Ingestion : figures.</text><text x="226.459" y="654.856" fill="#000" font-size="14" textLength="496.692">Notifications : compte supprime (Identites -> Espaces), document pret</text><text x="226.459" y="671.153" fill="#000" font-size="14" textLength="497.082">(Ingestion -> Espaces, Revision), message envoye (Assistant -> Suivi),</text><text x="226.459" y="687.449" fill="#000" font-size="14" textLength="307.077">fiche et quiz (Revision -> Suivi, Motivation).</text><text x="226.459" y="703.746" fill="#000" font-size="14" textLength="461.809">Suppression d'un compte ou d'un espace : purge en cascade vers</text><text x="226.459" y="720.043" fill="#000" font-size="14" textLength="148.251">tous les composants.</text></g><?plantuml-src VLNBRjim4BphAnQ-s0OSDuVs4WG10gCF7re4TN-0eTSoOOfKICgjM_JVEwGUb1h4DtEvCvoTNQtdj0iNpRHdqeAag4FZcEv8gzAm9-l2qPRM2Cr-HT9MjVN214ySg1Ro94eaiI77CWXJ8glm9sLguKG53iFXKdFBChf8F8PDQDyUmAEKZlpj16FtxBcczxUZe1Fc58CVReiYg03e3wygUnAFMxgXpKI-Oos2iiRJmgWpYmQoZEGwnfP5CQSlrdcIHr7LyACMtZCWqQgva3BQeTMp4yefM83d0-GY2Y3_2ax8o4FA17PmJtbc4gJdoi2nUBKkYgv6cZr6lXdzAIXRGxCds2QKff_yF2FXgJ_Vts_wf8U7AUHpourkUb9xX5I8n01l-zD_yByZ6HlBZQEQzwAqfNff-9MaCJzx03lsZ-tlQzAsVU493Ai3cwRJDbnTmJzwhpoc84JicPrFpJEi4qM-lKOHM2jsSTOTdvK7Fe6_TuShrZmfRME3NpcoQzHPfP94NRleiVVneqZ4xUKLHLzjKETKI9n8DYMW5MuIUdJvIjYSTbPh9T5HMXmqooDJhHaVtBBev-JcvY6tVHBjsZNDx9imYGw-JgAzOPDWAdOIoGKKHMxGMC0qcYMWlcy07rHQJ0U1biEHYv571nDeKLjyM0eVeryMURBNwyoSP-hjw516bX73RI73KBmH6XUdkMIpfsSRWgtGuK_ZXc1v-A5NxoXBnuNfYbpaufPh48ny6SJ79OInnou6ooGXLtL71rLYWVj8qZeekoLtb-OE4do3GLKL7itEvLUMAzfRsSGX9Cnp0CyYy-UyrU0U41MdeSS0d-q5n1DroRlb2aGG0rSmw2-D-asBmSu-QJKoDTcmYrB1dRR6l35z2RPfZ-qAYiOqBZsFFp0l1KOcBWWG1DjuqcdVzAj_NQ1LRSEAVm00?></g></svg>